# Blender v2.92.0 OBJ File: ''
# www.blender.org
mtllib Tree Moba1.mtl
o Cube_Cube.001
v -0.412640 -0.023884 0.432254
v -0.390014 1.216377 0.408552
v -0.412640 -0.023884 -0.432254
v -0.390014 1.216377 -0.408552
v 0.412640 -0.023884 0.432254
v 0.390014 1.216377 0.408552
v 0.412640 -0.023884 -0.432254
v 0.390014 1.216377 -0.408552
v 0.000000 -0.023884 -0.648381
v 0.000000 1.216377 -0.612828
v 0.000000 -0.023884 0.648381
v 0.000000 1.216377 0.612828
v -0.618960 -0.023884 -0.000000
v -0.585020 1.216377 -0.000000
v 0.618960 -0.023884 -0.000000
v 0.585020 1.216377 -0.000000
v -0.479893 3.801335 -0.000000
v 0.000000 -0.023884 -0.000000
v -0.545888 2.508856 -0.000000
v -0.363925 2.508856 -0.381224
v 0.000000 2.508856 -0.571836
v 0.363925 2.508856 -0.381224
v 0.545888 2.508856 -0.000000
v 0.363925 2.508856 0.381224
v 0.000000 2.508856 0.571836
v -0.363925 2.508856 0.381224
v -0.360203 5.093814 -0.000000
v -0.319929 3.801335 -0.335136
v 0.000000 3.801335 -0.502704
v 0.319929 3.801335 -0.335136
v 0.479893 3.801335 -0.000000
v 0.319929 3.801335 0.335136
v 0.000000 3.801335 0.502704
v -0.319929 3.801335 0.335136
v -0.245370 6.386293 -0.000000
v -0.240135 5.093814 -0.251550
v 0.000000 5.093814 -0.377325
v 0.240135 5.093814 -0.251550
v 0.360203 5.093814 -0.000000
v 0.240135 5.093814 0.251550
v 0.000000 5.093814 0.377325
v -0.240135 5.093814 0.251550
v -0.144496 7.678772 -0.000000
v -0.163580 6.386293 -0.171356
v -0.000000 6.386293 -0.257034
v 0.163580 6.386293 -0.171356
v 0.245370 6.386293 -0.000000
v 0.163580 6.386293 0.171356
v -0.000000 6.386293 0.257034
v -0.163580 6.386293 0.171356
v -0.034661 8.971251 -0.000000
v -0.096331 7.678772 -0.100910
v -0.000000 7.678772 -0.151365
v 0.096331 7.678772 -0.100910
v 0.144496 7.678772 -0.000000
v 0.096331 7.678772 0.100910
v -0.000000 7.678772 0.151365
v -0.096331 7.678772 0.100910
v -0.023107 8.971251 -0.024206
v 0.000000 8.971251 -0.036308
v 0.023107 8.971251 -0.024206
v 0.034661 8.971251 -0.000000
v 0.023107 8.971251 0.024206
v 0.000000 8.971251 0.036308
v -0.023107 8.971251 0.024206
v 0.000000 9.124376 -0.000000
vt 0.375000 0.125000
vt 0.625000 0.125000
vt 0.625000 0.250000
vt 0.375000 0.250000
vt 0.375000 0.375000
vt 0.625000 0.375000
vt 0.625000 0.500000
vt 0.375000 0.500000
vt 0.375000 0.625000
vt 0.625000 0.625000
vt 0.625000 0.750000
vt 0.375000 0.750000
vt 0.375000 0.875000
vt 0.625000 0.875000
vt 0.625000 1.000000
vt 0.375000 1.000000
vt 0.250000 0.625000
vt 0.250000 0.750000
vt 0.625000 0.375000
vt 0.625000 0.500000
vt 0.625000 0.875000
vt 0.625000 1.000000
vt 0.125000 0.625000
vt 0.125000 0.750000
vt 0.125000 0.500000
vt 0.250000 0.500000
vt 0.625000 0.125000
vt 0.625000 0.250000
vt 0.375000 0.000000
vt 0.625000 0.000000
vt 0.625000 0.250000
vt 0.625000 0.375000
vt 0.625000 0.625000
vt 0.625000 0.500000
vt 0.625000 0.625000
vt 0.625000 0.875000
vt 0.625000 1.000000
vt 0.625000 0.000000
vt 0.625000 0.750000
vt 0.625000 0.375000
vt 0.625000 0.500000
vt 0.625000 0.875000
vt 0.625000 1.000000
vt 0.625000 0.750000
vt 0.625000 0.750000
vt 0.625000 0.125000
vt 0.625000 0.000000
vt 0.625000 0.000000
vt 0.625000 0.125000
vt 0.625000 0.000000
vt 0.625000 0.125000
vt 0.625000 0.250000
vt 0.625000 0.250000
vt 0.625000 0.625000
vt 0.625000 0.625000
vt 0.625000 0.750000
vt 0.625000 0.375000
vt 0.625000 0.125000
vt 0.625000 0.250000
vt 0.625000 0.625000
vt 0.625000 0.750000
vt 0.625000 0.375000
vt 0.625000 0.500000
vt 0.625000 0.500000
vt 0.625000 0.875000
vt 0.625000 1.000000
vt 0.625000 0.500000
vt 0.625000 0.625000
vt 0.625000 0.375000
vt 0.625000 1.000000
vt 0.625000 0.875000
vt 0.625000 0.875000
vt 0.625000 1.000000
vt 0.625000 0.750000
vt 0.625000 0.000000
vt 0.750000 0.625000
vt 0.875000 0.625000
vt 0.875000 0.750000
vt 0.750000 0.750000
vt 0.750000 0.500000
vt 0.875000 0.500000
vt 0.625000 0.250000
vt 0.625000 0.125000
vt 0.625000 0.000000
vn -0.9022 0.0247 -0.4306
vn 0.4638 0.0254 -0.8856
vn 0.9022 0.0247 0.4306
vn -0.4638 0.0254 0.8856
vn 0.0000 -1.0000 0.0000
vn 0.4638 0.0281 -0.8855
vn -0.4638 0.0281 0.8855
vn 0.4638 0.0254 0.8856
vn -0.4638 0.0254 -0.8856
vn -0.9021 0.0273 -0.4306
vn -0.4638 0.0281 -0.8855
vn 0.9022 0.0247 -0.4306
vn -0.9022 0.0247 0.4306
vn -0.4635 0.0473 -0.8849
vn 0.9015 0.0460 -0.4303
vn 0.4635 0.0473 -0.8849
vn -0.4635 0.0473 0.8849
vn 0.9021 0.0273 -0.4306
vn -0.9021 0.0273 0.4306
vn 0.9021 0.0273 0.4306
vn 0.4638 0.0281 0.8855
vn 0.4623 0.0856 -0.8826
vn -0.4623 0.0856 0.8826
vn 0.4623 0.0856 0.8826
vn -0.8993 0.0833 0.4293
vn 0.9015 0.0460 0.4303
vn -0.9015 0.0460 -0.4303
vn -0.9015 0.0460 0.4303
vn 0.4635 0.0473 0.8849
vn -0.8996 0.0799 0.4294
vn -0.8996 0.0799 -0.4294
vn 0.8996 0.0799 0.4294
vn -0.4624 0.0822 -0.8829
vn 0.8993 0.0833 -0.4293
vn -0.4623 0.0856 -0.8826
vn 0.8993 0.0833 0.4293
vn -0.8993 0.0833 -0.4293
vn -0.9002 0.0703 -0.4297
vn 0.9002 0.0703 0.4297
vn -0.4628 0.0722 -0.8835
vn 0.9002 0.0703 -0.4297
vn 0.4624 0.0822 0.8829
vn -0.4624 0.0822 0.8829
vn 0.4624 0.0822 -0.8829
vn 0.8996 0.0799 -0.4294
vn 0.8998 0.0765 -0.4295
vn 0.4625 0.0786 -0.8831
vn -0.4625 0.0786 0.8831
vn 0.4625 0.0786 0.8831
vn -0.9002 0.0703 0.4297
vn 0.4628 0.0722 0.8835
vn -0.4628 0.0722 0.8835
vn 0.4628 0.0722 -0.8835
vn -0.7067 0.2133 0.6746
vn 0.7067 0.2133 0.6746
vn 0.7067 0.2133 -0.6746
vn -0.7067 0.2133 -0.6746
vn -0.4625 0.0786 -0.8831
vn 0.8998 0.0765 0.4295
vn -0.8998 0.0765 -0.4295
vn -0.8998 0.0765 0.4295
usemtl Material.002
s off
f 13/1/1 14/2/1 4/3/1 3/4/1
f 9/5/2 10/6/2 8/7/2 7/8/2
f 15/9/3 16/10/3 6/11/3 5/12/3
f 11/13/4 12/14/4 2/15/4 1/16/4
f 18/17/5 15/9/5 5/12/5 11/18/5
f 8/7/6 10/6/6 21/19/6 22/20/6
f 2/15/7 12/14/7 25/21/7 26/22/7
f 13/23/5 18/17/5 11/18/5 1/24/5
f 5/12/8 6/11/8 12/14/8 11/13/8
f 3/4/9 4/3/9 10/6/9 9/5/9
f 3/25/5 9/26/5 18/17/5 13/23/5
f 4/3/10 14/2/10 19/27/10 20/28/10
f 10/6/11 4/3/11 20/28/11 21/19/11
f 9/26/5 7/8/5 15/9/5 18/17/5
f 7/8/12 8/7/12 16/10/12 15/9/12
f 1/29/13 2/30/13 14/2/13 13/1/13
f 21/19/14 20/28/14 28/31/14 29/32/14
f 23/33/15 22/20/15 30/34/15 31/35/15
f 22/20/16 21/19/16 29/32/16 30/34/16
f 26/22/17 25/21/17 33/36/17 34/37/17
f 16/10/18 8/7/18 22/20/18 23/33/18
f 14/2/19 2/30/19 26/38/19 19/27/19
f 6/11/20 16/10/20 23/33/20 24/39/20
f 12/14/21 6/11/21 24/39/21 25/21/21
f 30/34/22 29/32/22 37/40/22 38/41/22
f 34/37/23 33/36/23 41/42/23 42/43/23
f 33/36/24 32/44/24 40/45/24 41/42/24
f 17/46/25 34/47/25 42/48/25 27/49/25
f 24/39/26 23/33/26 31/35/26 32/44/26
f 20/28/27 19/27/27 17/46/27 28/31/27
f 19/27/28 26/38/28 34/47/28 17/46/28
f 25/21/29 24/39/29 32/44/29 33/36/29
f 27/49/30 42/48/30 50/50/30 35/51/30
f 36/52/31 27/49/31 35/51/31 44/53/31
f 40/45/32 39/54/32 47/55/32 48/56/32
f 37/40/33 36/52/33 44/53/33 45/57/33
f 31/35/34 30/34/34 38/41/34 39/54/34
f 29/32/35 28/31/35 36/52/35 37/40/35
f 32/44/36 31/35/36 39/54/36 40/45/36
f 28/31/37 17/46/37 27/49/37 36/52/37
f 44/53/38 35/51/38 43/58/38 52/59/38
f 48/56/39 47/55/39 55/60/39 56/61/39
f 45/57/40 44/53/40 52/59/40 53/62/40
f 47/55/41 46/63/41 54/64/41 55/60/41
f 41/42/42 40/45/42 48/56/42 49/65/42
f 42/43/43 41/42/43 49/65/43 50/66/43
f 38/41/44 37/40/44 45/57/44 46/63/44
f 39/54/45 38/41/45 46/63/45 47/55/45
f 55/60/46 54/64/46 61/67/46 62/68/46
f 54/64/47 53/62/47 60/69/47 61/67/47
f 58/70/48 57/71/48 64/72/48 65/73/48
f 57/71/49 56/61/49 63/74/49 64/72/49
f 35/51/50 50/50/50 58/75/50 43/58/50
f 49/65/51 48/56/51 56/61/51 57/71/51
f 50/66/52 49/65/52 57/71/52 58/70/52
f 46/63/53 45/57/53 53/62/53 54/64/53
f 66/76/54 51/77/54 65/78/54 64/79/54
f 62/68/55 66/76/55 64/79/55 63/74/55
f 61/67/56 60/80/56 66/76/56 62/68/56
f 60/80/57 59/81/57 51/77/57 66/76/57
f 53/62/58 52/59/58 59/82/58 60/69/58
f 56/61/59 55/60/59 62/68/59 63/74/59
f 52/59/60 43/58/60 51/83/60 59/82/60
f 43/58/61 58/75/61 65/84/61 51/83/61
o Roundcube
v 1.806988 3.568488 -1.806988
v 1.145585 3.500544 -1.955635
v -1.145585 3.500544 -1.955635
v 1.955635 3.870802 -1.955635
v 1.955635 4.927520 -1.955635
v 1.145585 4.927520 -2.291169
v 1.145585 3.870802 -2.291169
v -1.145585 3.870802 -2.291169
v -1.145585 4.927520 -2.291169
v -1.806988 3.568488 -1.806988
v -1.955635 3.500544 -1.145585
v -1.955635 3.500544 1.145585
v -1.955635 3.870802 -1.955635
v -1.955635 4.927520 -1.955635
v -2.291169 4.927520 -1.145585
v -2.291169 3.870802 -1.145585
v -2.291169 3.870802 1.145585
v -2.291169 4.927520 1.145585
v -1.806988 3.568488 1.806988
v -1.145585 3.500544 1.955635
v 1.145585 3.500544 1.955635
v -1.955635 3.870802 1.955635
v -1.955635 4.927520 1.955635
v -1.145585 4.927520 2.291169
v -1.145585 3.870802 2.291169
v 1.145585 3.870802 2.291169
v 1.145585 4.927520 2.291169
v 1.806988 3.568488 1.806988
v 1.955635 3.500544 1.145585
v 1.955635 3.500544 -1.145585
v 1.955635 3.870802 1.955635
v 1.955635 4.927520 1.955635
v 2.291169 4.927520 1.145585
v 2.291169 3.870802 1.145585
v 2.291169 3.870802 -1.145585
v 2.291169 4.927520 -1.145585
v 1.145585 3.347178 -1.145585
v 1.145585 3.347178 1.145585
v -1.145585 3.347178 1.145585
v -1.145585 3.347178 -1.145585
v 1.806988 5.281702 -1.806988
v 1.145585 5.380627 -1.955635
v -1.145585 5.380627 -1.955635
v -1.806988 5.281702 -1.806988
v 1.955635 5.380627 -1.145585
v 1.955635 5.380627 1.145585
v 1.145585 5.671048 1.145585
v 1.145585 5.671048 -1.145585
v -1.145585 5.671048 -1.145585
v -1.145585 5.671048 1.145585
v -1.955635 5.380627 -1.145585
v -1.955635 5.380627 1.145585
v 1.806988 5.281702 1.806988
v 1.145585 5.380627 1.955635
v -1.145585 5.380627 1.955635
v -1.806988 5.281702 1.806988
vn 0.2747 -0.6010 -0.7505
vn 0.0000 -0.6715 -0.7410
vn -0.2747 -0.6010 -0.7505
vn 0.3827 0.0000 -0.9239
vn 0.0000 0.0000 -1.0000
vn -0.3827 0.0000 -0.9239
vn 0.2969 0.5308 -0.7938
vn 0.0000 0.5951 -0.8036
vn -0.2969 0.5308 -0.7938
vn -0.7505 -0.6010 -0.2747
vn -0.7410 -0.6715 0.0000
vn -0.7505 -0.6010 0.2747
vn -0.9239 0.0000 -0.3827
vn -1.0000 0.0000 0.0000
vn -0.9239 0.0000 0.3827
vn -0.7938 0.5308 -0.2969
vn -0.8036 0.5951 0.0000
vn -0.7938 0.5308 0.2969
vn -0.2747 -0.6010 0.7505
vn 0.0000 -0.6715 0.7410
vn 0.2747 -0.6010 0.7505
vn -0.3827 0.0000 0.9239
vn 0.0000 0.0000 1.0000
vn 0.3827 0.0000 0.9239
vn -0.2969 0.5308 0.7938
vn 0.0000 0.5951 0.8036
vn 0.2969 0.5308 0.7938
vn 0.7505 -0.6010 0.2747
vn 0.7410 -0.6715 0.0000
vn 0.7505 -0.6010 -0.2747
vn 0.9239 0.0000 0.3827
vn 1.0000 0.0000 0.0000
vn 0.9239 0.0000 -0.3827
vn 0.7938 0.5308 0.2969
vn 0.8036 0.5951 0.0000
vn 0.7938 0.5308 -0.2969
vn 0.1628 -0.9731 0.1628
vn 0.0000 -0.9825 0.1860
vn -0.1628 -0.9731 0.1628
vn 0.1860 -0.9825 0.0000
vn 0.0000 -1.0000 0.0000
vn -0.1860 -0.9825 0.0000
vn 0.1628 -0.9731 -0.1628
vn 0.0000 -0.9825 -0.1860
vn -0.1628 -0.9731 -0.1628
vn 0.2717 0.9232 -0.2717
vn 0.0000 0.9413 -0.3375
vn -0.2717 0.9232 -0.2717
vn 0.3375 0.9413 0.0000
vn 0.0000 1.0000 0.0000
vn -0.3375 0.9413 0.0000
vn 0.2717 0.9232 0.2717
vn 0.0000 0.9413 0.3375
vn -0.2717 0.9232 0.2717
usemtl Material.001
s off
f 67//62 68//62 73//62 70//62
f 68//63 69//63 74//63 73//63
f 69//64 76//64 79//64 74//64
f 70//65 73//65 72//65 71//65
f 73//66 74//66 75//66 72//66
f 74//67 79//67 80//67 75//67
f 71//68 72//68 108//68 107//68
f 72//69 75//69 109//69 108//69
f 75//70 80//70 110//70 109//70
f 76//71 77//71 82//71 79//71
f 77//72 78//72 83//72 82//72
f 78//73 85//73 88//73 83//73
f 79//74 82//74 81//74 80//74
f 82//75 83//75 84//75 81//75
f 83//76 88//76 89//76 84//76
f 80//77 81//77 117//77 110//77
f 81//78 84//78 118//78 117//78
f 84//79 89//79 122//79 118//79
f 85//80 86//80 91//80 88//80
f 86//81 87//81 92//81 91//81
f 87//82 94//82 97//82 92//82
f 88//83 91//83 90//83 89//83
f 91//84 92//84 93//84 90//84
f 92//85 97//85 98//85 93//85
f 89//86 90//86 121//86 122//86
f 90//87 93//87 120//87 121//87
f 93//88 98//88 119//88 120//88
f 94//89 95//89 100//89 97//89
f 95//90 96//90 101//90 100//90
f 96//91 67//91 70//91 101//91
f 97//92 100//92 99//92 98//92
f 100//93 101//93 102//93 99//93
f 101//94 70//94 71//94 102//94
f 98//95 99//95 112//95 119//95
f 99//96 102//96 111//96 112//96
f 102//97 71//97 107//97 111//97
f 94//98 87//98 104//98 95//98
f 87//99 86//99 105//99 104//99
f 86//100 85//100 78//100 105//100
f 95//101 104//101 103//101 96//101
f 104//102 105//102 106//102 103//102
f 105//103 78//103 77//103 106//103
f 96//104 103//104 68//104 67//104
f 103//105 106//105 69//105 68//105
f 106//106 77//106 76//106 69//106
f 107//107 108//107 114//107 111//107
f 108//108 109//108 115//108 114//108
f 109//109 110//109 117//109 115//109
f 111//110 114//110 113//110 112//110
f 114//111 115//111 116//111 113//111
f 115//112 117//112 118//112 116//112
f 112//113 113//113 120//113 119//113
f 113//114 116//114 121//114 120//114
f 116//115 118//115 122//115 121//115
o Roundcube.001
v 1.259957 6.129051 -1.259957
v 0.798781 6.078249 -1.363604
v -0.798781 6.078249 -1.363604
v 1.363604 6.355095 -1.363604
v 1.363604 7.211926 -1.363604
v 0.798781 7.211926 -1.597562
v 0.798781 6.355095 -1.597562
v -0.798781 6.355095 -1.597562
v -0.798781 7.211926 -1.597562
v -1.259957 6.129051 -1.259957
v -1.363604 6.078249 -0.798781
v -1.363604 6.078249 0.798781
v -1.363604 6.355095 -1.363604
v -1.363604 7.211926 -1.363604
v -1.597562 7.211926 -0.798781
v -1.597562 6.355095 -0.798781
v -1.597562 6.355095 0.798781
v -1.597562 7.211926 0.798781
v -1.259957 6.129051 1.259957
v -0.798781 6.078249 1.363604
v 0.798781 6.078249 1.363604
v -1.363604 6.355095 1.363604
v -1.363604 7.211926 1.363604
v -0.798781 7.211926 1.597562
v -0.798781 6.355095 1.597562
v 0.798781 6.355095 1.597562
v 0.798781 7.211926 1.597562
v 1.259957 6.129051 1.259957
v 1.363604 6.078249 0.798781
v 1.363604 6.078249 -0.798781
v 1.363604 6.355095 1.363604
v 1.363604 7.211926 1.363604
v 1.597562 7.211926 0.798781
v 1.597562 6.355095 0.798781
v 1.597562 6.355095 -0.798781
v 1.597562 7.211926 -0.798781
v 0.798781 5.963575 -0.798781
v 0.798781 5.963575 0.798781
v -0.798781 5.963575 0.798781
v -0.798781 5.963575 -0.798781
v 1.259957 7.491640 -1.259957
v 0.798781 7.565116 -1.363604
v -0.798781 7.565116 -1.363604
v -1.259957 7.491640 -1.259957
v 1.363604 7.565116 -0.798781
v 1.363604 7.565116 0.798781
v 0.798781 7.759044 0.798781
v 0.798781 7.759044 -0.798781
v -0.798781 7.759044 -0.798781
v -0.798781 7.759044 0.798781
v -1.363604 7.565116 -0.798781
v -1.363604 7.565116 0.798781
v 1.259957 7.491640 1.259957
v 0.798781 7.565116 1.363604
v -0.798781 7.565116 1.363604
v -1.259957 7.491640 1.259957
vn 0.2814 -0.5742 -0.7689
vn 0.0000 -0.6455 -0.7638
vn -0.2814 -0.5742 -0.7689
vn 0.3827 0.0000 -0.9239
vn 0.0000 0.0000 -1.0000
vn -0.3827 0.0000 -0.9239
vn 0.3043 0.4866 -0.8189
vn 0.0000 0.5522 -0.8337
vn -0.3043 0.4866 -0.8189
vn -0.7689 -0.5742 -0.2814
vn -0.7638 -0.6455 0.0000
vn -0.7689 -0.5742 0.2814
vn -0.9239 0.0000 -0.3827
vn -1.0000 0.0000 0.0000
vn -0.9239 0.0000 0.3827
vn -0.8189 0.4866 -0.3043
vn -0.8337 0.5522 0.0000
vn -0.8189 0.4866 0.3043
vn -0.2814 -0.5742 0.7689
vn 0.0000 -0.6455 0.7638
vn 0.2814 -0.5742 0.7689
vn -0.3827 0.0000 0.9239
vn 0.0000 0.0000 1.0000
vn 0.3827 0.0000 0.9239
vn -0.3043 0.4866 0.8189
vn 0.0000 0.5522 0.8337
vn 0.3043 0.4866 0.8189
vn 0.7689 -0.5742 0.2814
vn 0.7638 -0.6455 0.0000
vn 0.7689 -0.5742 -0.2814
vn 0.9239 0.0000 0.3827
vn 1.0000 0.0000 0.0000
vn 0.9239 0.0000 -0.3827
vn 0.8189 0.4866 0.3043
vn 0.8337 0.5522 0.0000
vn 0.8189 0.4866 -0.3043
vn 0.1739 -0.9693 0.1739
vn 0.0000 -0.9800 0.1990
vn -0.1739 -0.9693 0.1739
vn 0.1990 -0.9800 0.0000
vn 0.0000 -1.0000 0.0000
vn -0.1990 -0.9800 0.0000
vn 0.1739 -0.9693 -0.1739
vn 0.0000 -0.9800 -0.1990
vn -0.1739 -0.9693 -0.1739
vn 0.2682 0.9253 -0.2682
vn 0.0000 0.9458 -0.3247
vn -0.2682 0.9253 -0.2682
vn 0.3247 0.9458 0.0000
vn 0.0000 1.0000 0.0000
vn -0.3247 0.9458 0.0000
vn 0.2682 0.9253 0.2682
vn 0.0000 0.9458 0.3247
vn -0.2682 0.9253 0.2682
usemtl Material.001
s off
f 123//116 124//116 129//116 126//116
f 124//117 125//117 130//117 129//117
f 125//118 132//118 135//118 130//118
f 126//119 129//119 128//119 127//119
f 129//120 130//120 131//120 128//120
f 130//121 135//121 136//121 131//121
f 127//122 128//122 164//122 163//122
f 128//123 131//123 165//123 164//123
f 131//124 136//124 166//124 165//124
f 132//125 133//125 138//125 135//125
f 133//126 134//126 139//126 138//126
f 134//127 141//127 144//127 139//127
f 135//128 138//128 137//128 136//128
f 138//129 139//129 140//129 137//129
f 139//130 144//130 145//130 140//130
f 136//131 137//131 173//131 166//131
f 137//132 140//132 174//132 173//132
f 140//133 145//133 178//133 174//133
f 141//134 142//134 147//134 144//134
f 142//135 143//135 148//135 147//135
f 143//136 150//136 153//136 148//136
f 144//137 147//137 146//137 145//137
f 147//138 148//138 149//138 146//138
f 148//139 153//139 154//139 149//139
f 145//140 146//140 177//140 178//140
f 146//141 149//141 176//141 177//141
f 149//142 154//142 175//142 176//142
f 150//143 151//143 156//143 153//143
f 151//144 152//144 157//144 156//144
f 152//145 123//145 126//145 157//145
f 153//146 156//146 155//146 154//146
f 156//147 157//147 158//147 155//147
f 157//148 126//148 127//148 158//148
f 154//149 155//149 168//149 175//149
f 155//150 158//150 167//150 168//150
f 158//151 127//151 163//151 167//151
f 150//152 143//152 160//152 151//152
f 143//153 142//153 161//153 160//153
f 142//154 141//154 134//154 161//154
f 151//155 160//155 159//155 152//155
f 160//156 161//156 162//156 159//156
f 161//157 134//157 133//157 162//157
f 152//158 159//158 124//158 123//158
f 159//159 162//159 125//159 124//159
f 162//160 133//160 132//160 125//160
f 163//161 164//161 170//161 167//161
f 164//162 165//162 171//162 170//162
f 165//163 166//163 173//163 171//163
f 167//164 170//164 169//164 168//164
f 170//165 171//165 172//165 169//165
f 171//166 173//166 174//166 172//166
f 168//167 169//167 176//167 175//167
f 169//168 172//168 177//168 176//168
f 172//169 174//169 178//169 177//169
o Roundcube.002
v 0.790139 8.073953 -0.790139
v 0.500928 8.042093 -0.855137
v -0.500928 8.042093 -0.855137
v 0.855137 8.218256 -0.855137
v 0.855137 8.918211 -0.855137
v 0.500928 8.918211 -1.001856
v 0.500928 8.218256 -1.001856
v -0.500928 8.218256 -1.001856
v -0.500928 8.918211 -1.001856
v -0.790139 8.073953 -0.790139
v -0.855137 8.042093 -0.500928
v -0.855137 8.042093 0.500928
v -0.855137 8.218256 -0.855137
v -0.855137 8.918211 -0.855137
v -1.001856 8.918211 -0.500928
v -1.001856 8.218256 -0.500928
v -1.001856 8.218256 0.500928
v -1.001856 8.918211 0.500928
v -0.790139 8.073953 0.790139
v -0.500928 8.042093 0.855137
v 0.500928 8.042093 0.855137
v -0.855137 8.218256 0.855137
v -0.855137 8.918211 0.855137
v -0.500928 8.918211 1.001856
v -0.500928 8.218256 1.001856
v 0.500928 8.218256 1.001856
v 0.500928 8.918211 1.001856
v 0.790139 8.073953 0.790139
v 0.855137 8.042093 0.500928
v 0.855137 8.042093 -0.500928
v 0.855137 8.218256 0.855137
v 0.855137 8.918211 0.855137
v 1.001856 8.918211 0.500928
v 1.001856 8.218256 0.500928
v 1.001856 8.218256 -0.500928
v 1.001856 8.918211 -0.500928
v 0.500928 7.970180 -0.500928
v 0.500928 7.970180 0.500928
v -0.500928 7.970180 0.500928
v -0.500928 7.970180 -0.500928
v 0.790139 9.175914 -0.790139
v 0.500928 9.255123 -0.855137
v -0.500928 9.255123 -0.855137
v -0.790139 9.175914 -0.790139
v 0.855137 9.255123 -0.500928
v 0.855137 9.255123 0.500928
v 0.500928 9.487487 0.500928
v 0.500928 9.487487 -0.500928
v -0.500928 9.487487 -0.500928
v -0.500928 9.487487 0.500928
v -0.855137 9.255123 -0.500928
v -0.855137 9.255123 0.500928
v 0.790139 9.175914 0.790139
v 0.500928 9.255123 0.855137
v -0.500928 9.255123 0.855137
v -0.790139 9.175914 0.790139
vn 0.2825 -0.5680 -0.7730
vn 0.0000 -0.6400 -0.7684
vn -0.2825 -0.5680 -0.7730
vn 0.3827 0.0000 -0.9239
vn 0.0000 0.0000 -1.0000
vn -0.3827 0.0000 -0.9239
vn 0.3314 0.3484 -0.8768
vn 0.0000 0.3993 -0.9168
vn -0.3314 0.3484 -0.8768
vn -0.7730 -0.5680 -0.2825
vn -0.7684 -0.6400 0.0000
vn -0.7730 -0.5680 0.2825
vn -0.9239 0.0000 -0.3827
vn -1.0000 0.0000 0.0000
vn -0.9239 0.0000 0.3827
vn -0.8768 0.3484 -0.3314
vn -0.9168 0.3993 0.0000
vn -0.8768 0.3484 0.3314
vn -0.2825 -0.5680 0.7730
vn 0.0000 -0.6400 0.7684
vn 0.2825 -0.5680 0.7730
vn -0.3827 0.0000 0.9239
vn 0.0000 0.0000 1.0000
vn 0.3827 0.0000 0.9239
vn -0.3314 0.3484 0.8768
vn 0.0000 0.3993 0.9168
vn 0.3314 0.3484 0.8768
vn 0.7730 -0.5680 0.2825
vn 0.7684 -0.6400 0.0000
vn 0.7730 -0.5680 -0.2825
vn 0.9239 0.0000 0.3827
vn 1.0000 0.0000 0.0000
vn 0.9239 0.0000 -0.3827
vn 0.8768 0.3484 0.3314
vn 0.9168 0.3993 0.0000
vn 0.8768 0.3484 -0.3314
vn 0.1739 -0.9693 0.1739
vn 0.0000 -0.9800 0.1990
vn -0.1739 -0.9693 0.1739
vn 0.1990 -0.9800 0.0000
vn 0.0000 -1.0000 0.0000
vn -0.1990 -0.9800 0.0000
vn 0.1739 -0.9693 -0.1739
vn 0.0000 -0.9800 -0.1990
vn -0.1739 -0.9693 -0.1739
vn 0.4285 0.7955 -0.4285
vn 0.0000 0.8361 -0.5485
vn -0.4285 0.7955 -0.4285
vn 0.5485 0.8361 0.0000
vn 0.0000 1.0000 0.0000
vn -0.5485 0.8361 0.0000
vn 0.4285 0.7955 0.4285
vn 0.0000 0.8361 0.5485
vn -0.4285 0.7955 0.4285
usemtl Material.003
s off
f 179//170 180//170 185//170 182//170
f 180//171 181//171 186//171 185//171
f 181//172 188//172 191//172 186//172
f 182//173 185//173 184//173 183//173
f 185//174 186//174 187//174 184//174
f 186//175 191//175 192//175 187//175
f 183//176 184//176 220//176 219//176
f 184//177 187//177 221//177 220//177
f 187//178 192//178 222//178 221//178
f 188//179 189//179 194//179 191//179
f 189//180 190//180 195//180 194//180
f 190//181 197//181 200//181 195//181
f 191//182 194//182 193//182 192//182
f 194//183 195//183 196//183 193//183
f 195//184 200//184 201//184 196//184
f 192//185 193//185 229//185 222//185
f 193//186 196//186 230//186 229//186
f 196//187 201//187 234//187 230//187
f 197//188 198//188 203//188 200//188
f 198//189 199//189 204//189 203//189
f 199//190 206//190 209//190 204//190
f 200//191 203//191 202//191 201//191
f 203//192 204//192 205//192 202//192
f 204//193 209//193 210//193 205//193
f 201//194 202//194 233//194 234//194
f 202//195 205//195 232//195 233//195
f 205//196 210//196 231//196 232//196
f 206//197 207//197 212//197 209//197
f 207//198 208//198 213//198 212//198
f 208//199 179//199 182//199 213//199
f 209//200 212//200 211//200 210//200
f 212//201 213//201 214//201 211//201
f 213//202 182//202 183//202 214//202
f 210//203 211//203 224//203 231//203
f 211//204 214//204 223//204 224//204
f 214//205 183//205 219//205 223//205
f 206//206 199//206 216//206 207//206
f 199//207 198//207 217//207 216//207
f 198//208 197//208 190//208 217//208
f 207//209 216//209 215//209 208//209
f 216//210 217//210 218//210 215//210
f 217//211 190//211 189//211 218//211
f 208//212 215//212 180//212 179//212
f 215//213 218//213 181//213 180//213
f 218//214 189//214 188//214 181//214
f 219//215 220//215 226//215 223//215
f 220//216 221//216 227//216 226//216
f 221//217 222//217 229//217 227//217
f 223//218 226//218 225//218 224//218
f 226//219 227//219 228//219 225//219
f 227//220 229//220 230//220 228//220
f 224//221 225//221 232//221 231//221
f 225//222 228//222 233//222 232//222
f 228//223 230//223 234//223 233//223
